<svg width="70.301" height="80.401" viewBox="0 0 70.301 80.401" xmlns="http://www.w3.org/2000/svg"><g id="svgGroup" stroke-linecap="round" fill-rule="evenodd" font-size="9pt" stroke="#000" stroke-width="0.25mm" fill="#db1010" style="stroke:#000;stroke-width:0.25mm;fill:#db1010"><path d="M 43.3 46.801 L 19.8 46.801 L 19.8 43.801 L 43.3 43.801 A 22.454 22.454 0 0 0 50.329 42.724 A 20.412 20.412 0 0 0 53.65 41.301 Q 58.3 38.801 61.05 34.201 A 19.24 19.24 0 0 0 63.531 27.119 A 24.929 24.929 0 0 0 63.8 23.401 Q 63.8 17.201 61.05 12.601 Q 58.3 8.001 53.65 5.501 A 21.182 21.182 0 0 0 44.534 3.031 A 25.24 25.24 0 0 0 43.3 3.001 L 19.8 3.001 L 19.8 0.001 L 43.3 0.001 A 24.791 24.791 0 0 1 52.05 1.525 A 23.321 23.321 0 0 1 55.15 2.951 Q 60.5 5.901 63.65 11.151 A 22.003 22.003 0 0 1 66.551 19.602 A 28.149 28.149 0 0 1 66.8 23.401 Q 66.8 30.401 63.65 35.651 Q 60.5 40.901 55.15 43.851 A 23.947 23.947 0 0 1 44.108 46.789 A 28.181 28.181 0 0 1 43.3 46.801 Z M 43.3 40.201 L 19.8 40.201 L 19.8 37.201 L 43.3 37.201 A 15.285 15.285 0 0 0 48.739 36.259 A 13.855 13.855 0 0 0 53.15 33.551 A 11.958 11.958 0 0 0 56.91 26.675 A 17.634 17.634 0 0 0 57.2 23.401 A 16.743 16.743 0 0 0 56.683 19.118 A 11.753 11.753 0 0 0 53.15 13.251 Q 49.1 9.601 43.3 9.601 L 19.8 9.601 L 19.8 6.601 L 43.3 6.601 A 18.574 18.574 0 0 1 48.823 7.402 A 16.59 16.59 0 0 1 51.8 8.651 Q 55.6 10.701 57.9 14.451 Q 60.2 18.201 60.2 23.401 A 19.713 19.713 0 0 1 59.728 27.816 A 15.038 15.038 0 0 1 57.9 32.351 Q 55.6 36.101 51.8 38.151 A 17.25 17.25 0 0 1 44.604 40.16 A 20.727 20.727 0 0 1 43.3 40.201 Z M 16.2 80.401 L 13.2 80.401 L 13.2 0.001 L 16.2 0.001 L 16.2 80.401 Z M 3 80.401 L 0 80.401 L 0 0.001 L 3 0.001 L 3 80.401 Z M 9.6 80.401 L 6.6 80.401 L 6.6 0.001 L 9.6 0.001 L 9.6 80.401 Z M 43.8 80.401 L 19.5 80.401 L 19.5 77.401 L 43.8 77.401 Q 51.1 77.401 56.35 74.551 Q 61.6 71.701 64.45 66.751 A 21.461 21.461 0 0 0 67.2 57.816 A 26.292 26.292 0 0 0 67.3 55.501 A 28.93 28.93 0 0 0 66.52 48.719 A 26.894 26.894 0 0 0 66.35 48.051 A 19.191 19.191 0 0 0 64.574 43.618 A 16.99 16.99 0 0 0 63.4 41.801 Q 64 41.301 64.55 40.751 Q 65.1 40.201 65.5 39.501 Q 70.3 45.801 70.3 55.501 Q 70.3 62.601 67.05 68.251 Q 63.8 73.901 57.85 77.151 A 26.098 26.098 0 0 1 49.587 79.941 A 34.998 34.998 0 0 1 43.8 80.401 Z M 43.3 33.601 L 19.8 33.601 L 19.8 30.601 L 43.3 30.601 A 8.579 8.579 0 0 0 46.158 30.139 A 7.584 7.584 0 0 0 48.45 28.851 Q 50.407 27.258 50.583 24.049 A 11.866 11.866 0 0 0 50.6 23.401 Q 50.6 20.913 49.678 19.325 A 4.991 4.991 0 0 0 48.45 17.901 A 7.873 7.873 0 0 0 44.037 16.227 A 10.058 10.058 0 0 0 43.3 16.201 L 19.8 16.201 L 19.8 13.201 L 43.3 13.201 A 11.795 11.795 0 0 1 47.218 13.831 A 10.333 10.333 0 0 1 50.6 15.801 A 8.363 8.363 0 0 1 53.241 20.231 Q 53.6 21.672 53.6 23.401 A 13.281 13.281 0 0 1 53.277 26.424 Q 52.765 28.613 51.444 30.154 A 8.089 8.089 0 0 1 50.6 31.001 A 10.587 10.587 0 0 1 44.095 33.578 A 13.646 13.646 0 0 1 43.3 33.601 Z M 43.8 73.801 L 19.5 73.801 L 19.5 70.801 L 43.8 70.801 A 25.649 25.649 0 0 0 48.597 70.381 Q 51.361 69.854 53.51 68.666 A 12.855 12.855 0 0 0 56.4 66.501 A 14.517 14.517 0 0 0 60.633 57.138 A 19.564 19.564 0 0 0 60.7 55.501 Q 60.7 52.901 60.1 50.451 A 17.998 17.998 0 0 0 59.239 47.802 A 14.624 14.624 0 0 0 58.4 46.101 A 7.852 7.852 0 0 0 59.279 45.59 A 6.411 6.411 0 0 0 59.8 45.201 A 20.269 20.269 0 0 0 60.222 44.84 Q 60.427 44.659 60.602 44.494 A 10.296 10.296 0 0 0 60.8 44.301 A 16.448 16.448 0 0 1 62.358 47.49 A 20.462 20.462 0 0 1 62.95 49.401 Q 63.7 52.301 63.7 55.501 A 19.719 19.719 0 0 1 62.632 62.106 A 17.191 17.191 0 0 1 58.5 68.601 Q 53.3 73.801 43.8 73.801 Z M 43.8 67.201 L 19.5 67.201 L 19.5 64.201 L 43.8 64.201 A 19.936 19.936 0 0 0 46.576 64.021 Q 49.833 63.562 51.571 61.926 A 5.961 5.961 0 0 0 51.7 61.801 Q 54.1 59.401 54.1 55.501 A 12.085 12.085 0 0 0 53.632 52.076 A 10.073 10.073 0 0 0 52.2 49.101 A 7.999 7.999 0 0 0 53.414 48.641 A 8.977 8.977 0 0 0 53.6 48.551 Q 54.3 48.201 55 47.801 Q 57.1 51.201 57.1 55.501 A 13.552 13.552 0 0 1 56.564 59.404 A 10.659 10.659 0 0 1 53.85 63.951 A 9.986 9.986 0 0 1 50.061 66.27 Q 47.439 67.201 43.8 67.201 Z" vector-effect="non-scaling-stroke"/></g></svg>