<svg width="150" height="150" viewBox="0 0 93.2 80.4" xmlns="http://www.w3.org/2000/svg"><g id="svgGroup" stroke-linecap="round" fill-rule="evenodd" font-size="9pt" stroke="#000" stroke-width="0.25mm" fill="#db1010" style="stroke:#000;stroke-width:0.25mm;fill:#db1010"><path d="M 36.9 80.4 L 33.8 80.4 L 13.6 0 L 16.7 0 L 36.9 80.4 Z M 30.1 80.4 L 27 80.4 L 6.8 0 L 9.9 0 L 30.1 80.4 Z M 23.3 80.4 L 20.2 80.4 L 0 0 L 3.1 0 L 23.3 80.4 Z M 57.1 0 L 38.8 73 L 37.2 66.7 L 54 0 L 57.1 0 Z M 93.2 0 L 74.9 72.8 L 73.4 66.6 L 90.1 0 L 93.2 0 Z M 73.1 80.4 L 70 80.4 L 55.3 22.1 L 56.9 15.8 L 73.1 80.4 Z M 50.3 0 L 35.3 59.6 L 33.8 53.5 L 47.2 0 L 50.3 0 Z M 86.4 0 L 71.6 59.2 L 70.1 53 L 83.3 0 L 86.4 0 Z M 66.4 80.4 L 63.3 80.4 L 52 35.3 L 53.5 29.2 L 66.4 80.4 Z M 43.5 0 L 31.9 46 L 30.5 39.7 L 40.4 0 L 43.5 0 Z M 79.6 0 L 68.1 45.6 L 66.6 39.4 L 76.5 0 L 79.6 0 Z M 59.6 80.4 L 56.5 80.4 L 48.5 48.8 L 50.1 42.5 L 59.6 80.4 Z" vector-effect="non-scaling-stroke"/></g></svg>